<?xml version="1.0" encoding="utf-8"?>
<!-- Generator: Adobe Illustrator 21.0.0, SVG Export Plug-In . SVG Version: 6.00 Build 0)  -->
<svg version="1.1" id="Layer_2_copy_2" xmlns="http://www.w3.org/2000/svg" xmlns:xlink="http://www.w3.org/1999/xlink" x="0px"
	 y="0px" viewBox="0 0 5800 1024" style="enable-background:new 0 0 5800 1024;" xml:space="preserve">
<style type="text/css">
	.st0{display:none;fill:#008AD1;}
	.st1{fill:#FFFFFF;}
	.st2{fill:#FFF792;}
	.st3{fill:#FF9852;}
	.st4{fill:none;}
	.st5{display:none;}
	.st6{display:inline;fill:#FFFFFF;}
	.st7{font-family:'Raleway-Light';}
	.st8{font-size:1000px;}
	.st9{letter-spacing:-40;}
	.st10{font-family:'Raleway-SemiBold';}
</style>
<rect x="-0.1" class="st0" width="5800.1" height="1024"/>
<path class="st1" d="M1016.1,8.2c-239.3-38.8-436.8,67-604.3,274.3C210.6,269.7,118.7,384.3,39.2,513.4l242.4,28.2l-8.7,85.4
	l124.5,124.5l85.4-8.7L511,985.2c129.1-79.5,243.7-171.4,230.8-372.7C949.1,445.1,1054.9,247.5,1016.1,8.2z M611.1,500.2
	c-24,24-62.9,24-86.8,0c-24-24-24-62.9,0-86.8c24-24,62.9-24,86.8,0C635,437.3,635,476.2,611.1,500.2z M676.9,347.5
	c-38-38-38-99.5,0-137.5s99.5-38,137.5,0s38,99.5,0,137.5S714.9,385.4,676.9,347.5z"/>
<polygon class="st2" points="364.8,785 239,659.2 95.4,796.2 91.7,932.2 227.7,928.5 "/>
<path class="st3" d="M364.8,785c-0.1,0.1-116.8,91.4-206.8,80.9c-10.5-90,81-206.7,81.1-206.7c-65.2,11.3-131.1,55.6-177.3,146.9
	C31.8,863.6,9.5,951.5-0.1,1024c72.5-9.6,160.4-31.9,217.9-61.8C309.1,916,353.5,850.2,364.8,785z"/>
<rect x="1363.1" y="72.1" class="st4" width="4689" height="804.9"/>
<text transform="matrix(1 0 0 1 1363.0865 802.0787)" class="st5"><tspan x="0" y="0" class="st6 st7 st8 st9">rocke</tspan><tspan x="2383" y="0" class="st6 st7 st8">t</tspan><tspan x="2703" y="0" class="st6 st10 st8 st9">files</tspan></text>
<g>
	<path class="st1" d="M1687.1,327.1c-46.7,1.3-87.5,15.2-122.5,41.5c-35,26.3-59.5,62.5-73.5,108.5v325h-50v-520h48v128
		c18-36.7,41.8-66.5,71.5-89.5c29.7-23,61.5-36.2,95.5-39.5c6.7-0.7,12.7-1,18-1c5.3,0,9.7,0,13,0V327.1z"/>
	<path class="st1" d="M1934.1,812.1c-36.7,0-70.5-7.2-101.5-21.5s-57.8-33.8-80.5-58.5c-22.7-24.7-40.3-53.3-53-86
		c-12.7-32.7-19-67-19-103c0-36.7,6.5-71.3,19.5-104c13-32.7,30.8-61.3,53.5-86c22.7-24.7,49.5-44.2,80.5-58.5
		c31-14.3,64.5-21.5,100.5-21.5s69.3,7.2,100,21.5c30.7,14.3,57.5,33.8,80.5,58.5c23,24.7,41,53.3,54,86c13,32.7,19.5,67.3,19.5,104
		c0,36-6.5,70.3-19.5,103c-13,32.7-30.8,61.3-53.5,86c-22.7,24.7-49.5,44.2-80.5,58.5S1970.1,812.1,1934.1,812.1z M1730.1,545.1
		c0,30.7,5.3,59.5,16,86.5c10.7,27,25.2,50.5,43.5,70.5c18.3,20,39.8,35.8,64.5,47.5c24.7,11.7,51,17.5,79,17.5s54.3-5.8,79-17.5
		c24.7-11.7,46.3-27.8,65-48.5c18.7-20.7,33.3-44.5,44-71.5c10.7-27,16-56.2,16-87.5c0-30.7-5.3-59.5-16-86.5
		c-10.7-27-25.3-50.7-44-71c-18.7-20.3-40.2-36.5-64.5-48.5c-24.3-12-50.5-18-78.5-18s-54.3,6-79,18c-24.7,12-46.2,28.3-64.5,49
		c-18.3,20.7-33,44.8-44,72.5C1735.6,485.3,1730.1,514.4,1730.1,545.1z"/>
	<path class="st1" d="M2232.1,540.1c0-36.7,6.3-71.3,19-104c12.7-32.7,30.3-61,53-85c22.7-24,49.7-43,81-57c31.3-14,65.7-21,103-21
		c47.3,0,89,10.7,125,32c36,21.3,63,51,81,89l-49,16c-15.3-28.7-37.2-51.2-65.5-67.5c-28.3-16.3-59.5-24.5-93.5-24.5
		c-28.7,0-55.3,5.7-80,17c-24.7,11.3-46.2,27-64.5,47c-18.3,20-32.8,43.5-43.5,70.5c-10.7,27-16,56.2-16,87.5
		c0,31.3,5.5,60.8,16.5,88.5c11,27.7,25.7,51.7,44,72c18.3,20.3,40,36.5,65,48.5s51.5,18,79.5,18c18,0,35.8-2.7,53.5-8
		c17.7-5.3,34-12.3,49-21c15-8.7,28-18.8,39-30.5c11-11.7,18.5-23.8,22.5-36.5l49,14c-6.7,18-16.8,34.8-30.5,50.5
		c-13.7,15.7-29.8,29.2-48.5,40.5c-18.7,11.3-39.3,20.2-62,26.5c-22.7,6.3-46,9.5-70,9.5c-36.7,0-70.7-7.2-102-21.5
		c-31.3-14.3-58.5-34-81.5-59s-41-53.8-54-86.5C2238.6,612.4,2232.1,577.4,2232.1,540.1z"/>
	<path class="st1" d="M3149.1,802.1l-203-278l-123,113v165h-50v-730h50v510l316-299h58l-217,211l224,308H3149.1z"/>
	<path class="st1" d="M3449.1,812.1c-36.7,0-70.7-7.2-102-21.5c-31.3-14.3-58.5-34-81.5-59s-41-53.8-54-86.5
		c-13-32.7-19.5-67.7-19.5-105c0-36.7,6.5-71.2,19.5-103.5c13-32.3,30.8-60.7,53.5-85c22.7-24.3,49.5-43.5,80.5-57.5
		s64.5-21,100.5-21c36.7,0,70.7,7.2,102,21.5c31.3,14.3,58.3,33.7,81,58c22.7,24.3,40.3,52.7,53,85c12.7,32.3,19,66.5,19,102.5
		c0,3.3,0,7.5,0,12.5s-0.3,8.2-1,9.5h-456c2,30,9,57.8,21,83.5c12,25.7,27.2,47.8,45.5,66.5c18.3,18.7,39.5,33.3,63.5,44
		c24,10.7,49.7,16,77,16c18,0,35.7-2.5,53-7.5c17.3-5,33.5-11.8,48.5-20.5c15-8.7,28.3-19.2,40-31.5c11.7-12.3,20.8-25.8,27.5-40.5
		l44,12c-7.3,18.7-18.2,35.8-32.5,51.5c-14.3,15.7-31,29.2-50,40.5c-19,11.3-39.8,20.2-62.5,26.5
		C3496.4,808.9,3473.1,812.1,3449.1,812.1z M3653.1,522.1c-2-30.7-8.8-58.7-20.5-84c-11.7-25.3-26.7-47.2-45-65.5
		c-18.3-18.3-39.5-32.7-63.5-43c-24-10.3-49.7-15.5-77-15.5c-27.3,0-53,5.2-77,15.5c-24,10.3-45.2,24.7-63.5,43
		c-18.3,18.3-33,40.3-44,66c-11,25.7-17.5,53.5-19.5,83.5H3653.1z"/>
	<path class="st1" d="M3999.1,777.1c-2.7,1.3-7.2,3.8-13.5,7.5c-6.3,3.7-14.3,7.2-24,10.5c-9.7,3.3-20.5,6.3-32.5,9s-25,4-39,4
		s-27.2-2-39.5-6c-12.3-4-23.2-10-32.5-18c-9.3-8-16.7-17.7-22-29c-5.3-11.3-8-24.7-8-40v-392h-73v-41h73v-178h50v178h121v41h-121
		v380c0,19.3,6.7,33.8,20,43.5c13.3,9.7,28.3,14.5,45,14.5c20.7,0,38.5-3.5,53.5-10.5s24.2-11.5,27.5-13.5L3999.1,777.1z"/>
	<path class="st1" d="M4105.1,377.1h-70v-85h70v-21c0-27.3,4.3-53.5,13-78.5c8.7-25,21.7-47.2,39-66.5
		c17.3-19.3,38.5-34.8,63.5-46.5c25-11.7,54.2-17.5,87.5-17.5c38,0,71.7,5.8,101,17.5c29.3,11.7,55,25.2,77,40.5l-45,82
		c-15.3-13.3-34.2-24.3-56.5-33c-22.3-8.7-45.5-13-69.5-13c-17.3,0-32.3,3.2-45,9.5c-12.7,6.3-23,14.8-31,25.5
		c-8,10.7-14,22.7-18,36c-4,13.3-6,27-6,41v24h274v510h-110v-425h-164v425h-110V377.1z"/>
	<path class="st1" d="M4582.1,72.1h110v579c0,19.3,5,34.5,15,45.5s24,16.5,42,16.5c7.3,0,15.8-1.3,25.5-4c9.7-2.7,18.8-5.7,27.5-9
		l16,86c-16,7.3-35,13.2-57,17.5s-41.7,6.5-59,6.5c-38,0-67.5-10.3-88.5-31c-21-20.7-31.5-50-31.5-88V72.1z"/>
	<path class="st1" d="M5079,812.1c-40.7,0-77.7-7.2-111-21.5c-33.3-14.3-61.8-33.8-85.5-58.5c-23.7-24.7-42-53.3-55-86
		c-13-32.7-19.5-67.3-19.5-104c0-36.7,6.5-71.5,19.5-104.5s31.3-62,55-87c23.7-25,52.2-44.7,85.5-59c33.3-14.3,70.7-21.5,112-21.5
		c40.7,0,77.5,7.3,110.5,22c33,14.7,61.2,34.2,84.5,58.5c23.3,24.3,41.2,52.7,53.5,85c12.3,32.3,18.5,66.2,18.5,101.5
		c0,8-0.3,15.5-1,22.5c-0.7,7-1.3,12.8-2,17.5h-419c2,23.3,7.5,44.3,16.5,63c9,18.7,20.7,34.8,35,48.5c14.3,13.7,30.7,24.2,49,31.5
		c18.3,7.3,37.5,11,57.5,11c14.7,0,29.2-1.8,43.5-5.5c14.3-3.7,27.5-9,39.5-16s22.7-15.5,32-25.5c9.3-10,16.7-21,22-33l94,27
		c-18,39.3-47.8,71.5-89.5,96.5C5182.9,799.6,5134.4,812.1,5079,812.1z M5238,501.1c-2-22-7.5-42.3-16.5-61
		c-9-18.7-20.5-34.5-34.5-47.5s-30.3-23.2-49-30.5c-18.7-7.3-38.3-11-59-11c-20.7,0-40.2,3.7-58.5,11c-18.3,7.3-34.5,17.5-48.5,30.5
		s-25.3,28.8-34,47.5c-8.7,18.7-14,39-16,61H5238z"/>
	<path class="st1" d="M5587,812.1c-42,0-83.8-6.8-125.5-20.5c-41.7-13.7-77.5-33.2-107.5-58.5l44-70c31.3,22.7,62.3,39.8,93,51.5
		c30.7,11.7,62,17.5,94,17.5c32.7,0,58.5-6.3,77.5-19c19-12.7,28.5-30.7,28.5-54c0-22-10.7-38-32-48c-21.3-10-54.7-21-100-33
		c-32.7-8.7-60.7-17-84-25c-23.3-8-42.3-17.3-57-28c-14.7-10.7-25.3-23-32-37c-6.7-14-10-31-10-51c0-26.7,5.2-50.3,15.5-71
		c10.3-20.7,24.7-38.2,43-52.5c18.3-14.3,39.8-25.2,64.5-32.5c24.7-7.3,51.3-11,80-11c39.3,0,76,6,110,18s64.3,29.3,91,52l-47,66
		c-48.7-38.7-100.3-58-155-58c-28,0-51.5,5.8-70.5,17.5c-19,11.7-28.5,30.2-28.5,55.5c0,10.7,2,19.7,6,27c4,7.3,10.5,13.7,19.5,19
		c9,5.3,20.7,10.2,35,14.5c14.3,4.3,32.2,9.2,53.5,14.5c35.3,8.7,65.8,17.3,91.5,26c25.7,8.7,46.8,18.8,63.5,30.5
		c16.7,11.7,29,25.3,37,41c8,15.7,12,34.5,12,56.5c0,50-18.8,89.5-56.5,118.5C5702.9,797.6,5651.7,812.1,5587,812.1z"/>
</g>
</svg>
